<svg width="540" height="817" viewBox="0 0 540 817" fill="none" xmlns="http://www.w3.org/2000/svg">
<path d="M6.03693 117.455V42.4545H20.9517V51.6165H21.6264C22.2893 50.1487 23.2481 48.6572 24.5028 47.142C25.7813 45.6032 27.4384 44.3248 29.4744 43.3068C31.5341 42.2652 34.0909 41.7443 37.1449 41.7443C41.1222 41.7443 44.7917 42.786 48.1534 44.8693C51.5152 46.929 54.2022 50.0421 56.2145 54.2088C58.2268 58.3518 59.233 63.5483 59.233 69.7983C59.233 75.8826 58.2505 81.0199 56.2855 85.2102C54.3442 89.3769 51.6927 92.5374 48.331 94.6918C44.9929 96.8224 41.2524 97.8878 37.1094 97.8878C34.1738 97.8878 31.6761 97.4025 29.6165 96.4318C27.5805 95.4612 25.9115 94.242 24.6094 92.7741C23.3073 91.2827 22.313 89.7794 21.6264 88.2642H21.1648V117.455H6.03693ZM20.8452 69.7273C20.8452 72.9706 21.295 75.7997 22.1946 78.2145C23.0942 80.6293 24.3963 82.5114 26.1009 83.8608C27.8054 85.1866 29.8769 85.8494 32.3153 85.8494C34.7775 85.8494 36.8608 85.1747 38.5653 83.8253C40.2699 82.4522 41.5601 80.5582 42.4361 78.1435C43.3357 75.705 43.7855 72.8996 43.7855 69.7273C43.7855 66.5786 43.3475 63.8087 42.4716 61.4176C41.5956 59.0265 40.3054 57.1562 38.6009 55.8068C36.8963 54.4574 34.8011 53.7827 32.3153 53.7827C29.8532 53.7827 27.7699 54.4337 26.0653 55.7358C24.3845 57.0379 23.0942 58.8845 22.1946 61.2756C21.295 63.6667 20.8452 66.4839 20.8452 69.7273ZM103.223 97L88.3789 42.4545H103.684L112.136 79.1023H112.633L121.44 42.4545H136.461L145.41 78.8892H145.872L154.181 42.4545H169.451L154.643 97H138.627L129.252 62.696H128.578L119.203 97H103.223ZM211.426 97L196.582 42.4545H211.887L220.339 79.1023H220.836L229.643 42.4545H244.664L253.613 78.8892H254.075L262.385 42.4545H277.654L262.846 97H246.831L237.456 62.696H236.781L227.406 97H211.426ZM322.576 81.304L322.612 63.1577H324.814L342.285 42.4545H359.65L336.177 69.8693H332.591L322.576 81.304ZM308.869 97V24.2727H323.997V97H308.869ZM342.96 97L326.909 73.2429L336.994 62.554L360.68 97H342.96ZM415.075 98.0653C409.464 98.0653 404.634 96.929 400.586 94.6562C396.561 92.3598 393.46 89.1165 391.282 84.9261C389.104 80.7121 388.015 75.7287 388.015 69.9759C388.015 64.3651 389.104 59.4408 391.282 55.2031C393.46 50.9654 396.526 47.6629 400.479 45.2955C404.457 42.928 409.121 41.7443 414.471 41.7443C418.069 41.7443 421.419 42.3243 424.521 43.4844C427.646 44.6207 430.368 46.3371 432.688 48.6335C435.032 50.9299 436.855 53.8182 438.157 57.2983C439.459 60.7547 440.11 64.803 440.11 69.4432V73.598H394.052V64.223H425.87C425.87 62.045 425.397 60.1155 424.45 58.4347C423.503 56.7538 422.189 55.4399 420.508 54.4929C418.851 53.5223 416.921 53.0369 414.719 53.0369C412.423 53.0369 410.387 53.5696 408.612 54.6349C406.86 55.6766 405.487 57.0852 404.492 58.8608C403.498 60.6127 402.989 62.5658 402.965 64.7202V73.6335C402.965 76.3324 403.462 78.6643 404.457 80.6293C405.475 82.5942 406.907 84.1094 408.754 85.1747C410.6 86.2401 412.79 86.7727 415.323 86.7727C417.004 86.7727 418.543 86.536 419.94 86.0625C421.336 85.589 422.532 84.8788 423.526 83.9318C424.521 82.9848 425.278 81.8248 425.799 80.4517L439.79 81.375C439.08 84.7367 437.624 87.6723 435.423 90.1818C433.245 92.6676 430.427 94.6089 426.971 96.0057C423.538 97.3788 419.573 98.0653 415.075 98.0653Z" fill="#006CA9"/>
<path d="M104.797 466L89.9531 411.455H105.259L113.71 448.102H114.207L123.014 411.455H138.036L146.984 447.889H147.446L155.756 411.455H171.026L156.217 466H140.202L130.827 431.696H130.152L120.777 466H104.797Z" fill="#737370"/>
<path d="M216.797 622L201.953 567.455H217.259L225.71 604.102H226.207L235.014 567.455H250.036L258.984 603.889H259.446L267.756 567.455H283.026L268.217 622H252.202L242.827 587.696H242.152L232.777 622H216.797Z" fill="#737370"/>
<path d="M216.797 699L201.953 644.455H217.259L225.71 681.102H226.207L235.014 644.455H250.036L258.984 680.889H259.446L267.756 644.455H283.026L268.217 699H252.202L242.827 664.696H242.152L232.777 699H216.797ZM327.947 683.304L327.983 665.158H330.185L347.656 644.455H365.021L341.548 671.869H337.962L327.947 683.304ZM314.24 699V626.273H329.368V699H314.24ZM348.331 699L332.28 675.243L342.365 664.554L366.051 699H348.331Z" fill="#737370"/>
<path d="M216.797 793L201.953 738.455H217.259L225.71 775.102H226.207L235.014 738.455H250.036L258.984 774.889H259.446L267.756 738.455H283.026L268.217 793H252.202L242.827 758.696H242.152L232.777 793H216.797ZM327.947 777.304L327.983 759.158H330.185L347.656 738.455H365.021L341.548 765.869H337.962L327.947 777.304ZM314.24 793V720.273H329.368V793H314.24ZM348.331 793L332.28 769.243L342.365 758.554L366.051 793H348.331ZM420.446 794.065C414.835 794.065 410.005 792.929 405.957 790.656C401.932 788.36 398.831 785.116 396.653 780.926C394.475 776.712 393.386 771.729 393.386 765.976C393.386 760.365 394.475 755.441 396.653 751.203C398.831 746.965 401.897 743.663 405.85 741.295C409.828 738.928 414.492 737.744 419.842 737.744C423.44 737.744 426.79 738.324 429.892 739.484C433.017 740.621 435.739 742.337 438.059 744.634C440.403 746.93 442.226 749.818 443.528 753.298C444.83 756.755 445.481 760.803 445.481 765.443V769.598H399.423V760.223H431.241C431.241 758.045 430.768 756.116 429.821 754.435C428.874 752.754 427.56 751.44 425.879 750.493C424.222 749.522 422.292 749.037 420.091 749.037C417.794 749.037 415.758 749.57 413.983 750.635C412.231 751.677 410.858 753.085 409.863 754.861C408.869 756.613 408.36 758.566 408.336 760.72V769.634C408.336 772.332 408.833 774.664 409.828 776.629C410.846 778.594 412.278 780.109 414.125 781.175C415.971 782.24 418.161 782.773 420.694 782.773C422.375 782.773 423.914 782.536 425.311 782.062C426.708 781.589 427.903 780.879 428.897 779.932C429.892 778.985 430.649 777.825 431.17 776.452L445.162 777.375C444.451 780.737 442.995 783.672 440.794 786.182C438.616 788.668 435.798 790.609 432.342 792.006C428.909 793.379 424.944 794.065 420.446 794.065Z" fill="#737370"/>
<path d="M104.797 535L89.9531 480.455H105.259L113.71 517.102H114.207L123.014 480.455H138.036L146.984 516.889H147.446L155.756 480.455H171.026L156.217 535H140.202L130.827 500.696H130.152L120.777 535H104.797ZM213 535L198.156 480.455H213.462L221.913 517.102H222.411L231.217 480.455H246.239L255.188 516.889H255.649L263.959 480.455H279.229L264.42 535H248.405L239.03 500.696H238.355L228.98 535H213Z" fill="#737370"/>
<path d="M6.03693 406.455V331.455H20.9517V340.616H21.6264C22.2893 339.149 23.2481 337.657 24.5028 336.142C25.7813 334.603 27.4384 333.325 29.4744 332.307C31.5341 331.265 34.0909 330.744 37.1449 330.744C41.1222 330.744 44.7917 331.786 48.1534 333.869C51.5152 335.929 54.2022 339.042 56.2145 343.209C58.2268 347.352 59.233 352.548 59.233 358.798C59.233 364.883 58.2505 370.02 56.2855 374.21C54.3442 378.377 51.6927 381.537 48.331 383.692C44.9929 385.822 41.2524 386.888 37.1094 386.888C34.1738 386.888 31.6761 386.402 29.6165 385.432C27.5805 384.461 25.9115 383.242 24.6094 381.774C23.3073 380.283 22.313 378.779 21.6264 377.264H21.1648V406.455H6.03693ZM20.8452 358.727C20.8452 361.971 21.295 364.8 22.1946 367.214C23.0942 369.629 24.3963 371.511 26.1009 372.861C27.8054 374.187 29.8769 374.849 32.3153 374.849C34.7775 374.849 36.8608 374.175 38.5653 372.825C40.2699 371.452 41.5601 369.558 42.4361 367.143C43.3357 364.705 43.7855 361.9 43.7855 358.727C43.7855 355.579 43.3475 352.809 42.4716 350.418C41.5956 348.027 40.3054 346.156 38.6009 344.807C36.8963 343.457 34.8011 342.783 32.3153 342.783C29.8532 342.783 27.7699 343.434 26.0653 344.736C24.3845 346.038 23.0942 347.884 22.1946 350.276C21.295 352.667 20.8452 355.484 20.8452 358.727ZM103.223 386L88.3789 331.455H103.684L112.136 368.102H112.633L121.44 331.455H136.461L145.41 367.889H145.872L154.181 331.455H169.451L154.643 386H138.627L129.252 351.696H128.578L119.203 386H103.223ZM211.426 386L196.582 331.455H211.887L220.339 368.102H220.836L229.643 331.455H244.664L253.613 367.889H254.075L262.385 331.455H277.654L262.846 386H246.831L237.456 351.696H236.781L227.406 386H211.426Z" fill="#737370"/>
<path d="M6.03693 309.455V234.455H20.9517V243.616H21.6264C22.2893 242.149 23.2481 240.657 24.5028 239.142C25.7813 237.603 27.4384 236.325 29.4744 235.307C31.5341 234.265 34.0909 233.744 37.1449 233.744C41.1222 233.744 44.7917 234.786 48.1534 236.869C51.5152 238.929 54.2022 242.042 56.2145 246.209C58.2268 250.352 59.233 255.548 59.233 261.798C59.233 267.883 58.2505 273.02 56.2855 277.21C54.3442 281.377 51.6927 284.537 48.331 286.692C44.9929 288.822 41.2524 289.888 37.1094 289.888C34.1738 289.888 31.6761 289.402 29.6165 288.432C27.5805 287.461 25.9115 286.242 24.6094 284.774C23.3073 283.283 22.313 281.779 21.6264 280.264H21.1648V309.455H6.03693ZM20.8452 261.727C20.8452 264.971 21.295 267.8 22.1946 270.214C23.0942 272.629 24.3963 274.511 26.1009 275.861C27.8054 277.187 29.8769 277.849 32.3153 277.849C34.7775 277.849 36.8608 277.175 38.5653 275.825C40.2699 274.452 41.5601 272.558 42.4361 270.143C43.3357 267.705 43.7855 264.9 43.7855 261.727C43.7855 258.579 43.3475 255.809 42.4716 253.418C41.5956 251.027 40.3054 249.156 38.6009 247.807C36.8963 246.457 34.8011 245.783 32.3153 245.783C29.8532 245.783 27.7699 246.434 26.0653 247.736C24.3845 249.038 23.0942 250.884 22.1946 253.276C21.295 255.667 20.8452 258.484 20.8452 261.727ZM103.223 289L88.3789 234.455H103.684L112.136 271.102H112.633L121.44 234.455H136.461L145.41 270.889H145.872L154.181 234.455H169.451L154.643 289H138.627L129.252 254.696H128.578L119.203 289H103.223Z" fill="#737370"/>
<path d="M6.03693 213.455V138.455H20.9517V147.616H21.6264C22.2893 146.149 23.2481 144.657 24.5028 143.142C25.7813 141.603 27.4384 140.325 29.4744 139.307C31.5341 138.265 34.0909 137.744 37.1449 137.744C41.1222 137.744 44.7917 138.786 48.1534 140.869C51.5152 142.929 54.2022 146.042 56.2145 150.209C58.2268 154.352 59.233 159.548 59.233 165.798C59.233 171.883 58.2505 177.02 56.2855 181.21C54.3442 185.377 51.6927 188.537 48.331 190.692C44.9929 192.822 41.2524 193.888 37.1094 193.888C34.1738 193.888 31.6761 193.402 29.6165 192.432C27.5805 191.461 25.9115 190.242 24.6094 188.774C23.3073 187.283 22.313 185.779 21.6264 184.264H21.1648V213.455H6.03693ZM20.8452 165.727C20.8452 168.971 21.295 171.8 22.1946 174.214C23.0942 176.629 24.3963 178.511 26.1009 179.861C27.8054 181.187 29.8769 181.849 32.3153 181.849C34.7775 181.849 36.8608 181.175 38.5653 179.825C40.2699 178.452 41.5601 176.558 42.4361 174.143C43.3357 171.705 43.7855 168.9 43.7855 165.727C43.7855 162.579 43.3475 159.809 42.4716 157.418C41.5956 155.027 40.3054 153.156 38.6009 151.807C36.8963 150.457 34.8011 149.783 32.3153 149.783C29.8532 149.783 27.7699 150.434 26.0653 151.736C24.3845 153.038 23.0942 154.884 22.1946 157.276C21.295 159.667 20.8452 162.484 20.8452 165.727Z" fill="#737370"/>
<path d="M510.375 148.364L503.131 192H497.847L504.153 153.903H503.898L492.051 160.977L492.989 155.608L505.091 148.364H510.375Z" fill="#737370"/>
<path d="M510.375 422.364L503.131 466H497.847L504.153 427.903H503.898L492.051 434.977L492.989 429.608L505.091 422.364H510.375Z" fill="#737370"/>
<path d="M510.375 570.364L503.131 614H497.847L504.153 575.903H503.898L492.051 582.977L492.989 577.608L505.091 570.364H510.375Z" fill="#737370"/>
<path d="M486.79 282L487.472 278.165L504.432 262.398C506.42 260.551 508.075 258.939 509.396 257.561C510.732 256.183 511.768 254.891 512.507 253.683C513.26 252.476 513.75 251.205 513.977 249.869C514.233 248.335 514.098 247.007 513.572 245.885C513.047 244.763 512.216 243.896 511.08 243.286C509.943 242.675 508.58 242.369 506.989 242.369C505.313 242.369 503.786 242.717 502.408 243.413C501.03 244.095 499.886 245.061 498.977 246.311C498.068 247.547 497.472 248.989 497.188 250.636H492.159C492.585 248.08 493.558 245.835 495.078 243.903C496.612 241.972 498.494 240.466 500.724 239.386C502.969 238.307 505.369 237.767 507.926 237.767C510.483 237.767 512.649 238.307 514.425 239.386C516.2 240.466 517.486 241.922 518.281 243.754C519.077 245.587 519.29 247.625 518.92 249.869C518.636 251.489 518.075 253.058 517.237 254.578C516.399 256.098 515.114 257.795 513.381 259.67C511.662 261.531 509.332 263.804 506.392 266.489L494.886 276.972L494.801 277.312H515.085L514.318 282H486.79Z" fill="#737370"/>
<path d="M486.79 699L487.472 695.165L504.432 679.398C506.42 677.551 508.075 675.939 509.396 674.561C510.732 673.183 511.768 671.891 512.507 670.683C513.26 669.476 513.75 668.205 513.977 666.869C514.233 665.335 514.098 664.007 513.572 662.885C513.047 661.763 512.216 660.896 511.08 660.286C509.943 659.675 508.58 659.369 506.989 659.369C505.313 659.369 503.786 659.717 502.408 660.413C501.03 661.095 499.886 662.061 498.977 663.311C498.068 664.547 497.472 665.989 497.188 667.636H492.159C492.585 665.08 493.558 662.835 495.078 660.903C496.612 658.972 498.494 657.466 500.724 656.386C502.969 655.307 505.369 654.767 507.926 654.767C510.483 654.767 512.649 655.307 514.425 656.386C516.2 657.466 517.486 658.922 518.281 660.754C519.077 662.587 519.29 664.625 518.92 666.869C518.636 668.489 518.075 670.058 517.237 671.578C516.399 673.098 515.114 674.795 513.381 676.67C511.662 678.531 509.332 680.804 506.392 683.489L494.886 693.972L494.801 694.312H515.085L514.318 699H486.79Z" fill="#737370"/>
<path d="M502.705 791.597C499.864 791.597 497.399 791.121 495.311 790.169C493.237 789.203 491.689 787.861 490.666 786.142C489.643 784.409 489.281 782.392 489.58 780.091H494.864C494.736 781.483 494.977 782.69 495.588 783.713C496.213 784.736 497.136 785.524 498.358 786.078C499.594 786.632 501.071 786.909 502.79 786.909C504.622 786.909 506.341 786.589 507.946 785.95C509.565 785.311 510.922 784.388 512.016 783.18C513.109 781.959 513.784 780.503 514.04 778.812C514.267 777.293 514.097 775.943 513.528 774.764C512.96 773.585 511.98 772.662 510.588 771.994C509.21 771.312 507.406 770.972 505.176 770.972H501.597L502.364 766.284H505.688C507.42 766.284 509.011 765.957 510.46 765.304C511.909 764.651 513.116 763.734 514.082 762.555C515.048 761.362 515.659 759.963 515.915 758.358C516.156 756.952 516.057 755.73 515.616 754.693C515.19 753.642 514.452 752.825 513.401 752.243C512.364 751.661 511.043 751.369 509.438 751.369C507.903 751.369 506.398 751.646 504.92 752.2C503.457 752.74 502.207 753.528 501.17 754.565C500.134 755.588 499.48 756.824 499.21 758.273H494.097C494.537 756 495.524 754.004 497.058 752.286C498.592 750.553 500.46 749.203 502.662 748.237C504.878 747.257 507.222 746.767 509.693 746.767C512.435 746.767 514.693 747.335 516.469 748.472C518.259 749.594 519.537 751.071 520.304 752.903C521.071 754.722 521.284 756.682 520.943 758.784C520.56 761.185 519.572 763.216 517.982 764.878C516.391 766.54 514.452 767.719 512.165 768.415V768.67C514.849 769.139 516.795 770.375 518.003 772.378C519.224 774.366 519.608 776.739 519.153 779.494C518.756 781.966 517.797 784.111 516.277 785.929C514.757 787.733 512.832 789.132 510.503 790.126C508.173 791.107 505.574 791.597 502.705 791.597Z" fill="#FA8F00"/>
<path d="M506.618 350L515.973 359.355L510.355 364.973L501 355.618L491.618 365L486 359.382L495.382 350L486 340.618L491.618 335L501 344.382L510.382 335.027L516 340.645L506.618 350Z" fill="#737370"/>
<path d="M506.618 505L515.973 514.355L510.355 519.973L501 510.618L491.618 520L486 514.382L495.382 505L486 495.618L491.618 490L501 499.382L510.382 490.027L516 495.645L506.618 505Z" fill="#737370"/>
<line y1="223" x2="539" y2="223" stroke="#737370" stroke-width="2" stroke-dasharray="4 4"/>
<line y1="133" x2="539" y2="133" stroke="#737370" stroke-width="2" stroke-dasharray="4 4"/>
<line x1="1" y1="712" x2="540" y2="712" stroke="#737370" stroke-width="2" stroke-dasharray="4 4"/>
<line y1="632" x2="539" y2="632" stroke="#737370" stroke-width="2" stroke-dasharray="4 4"/>
<line x1="1" y1="555" x2="540" y2="555" stroke="#737370" stroke-width="2" stroke-dasharray="4 4"/>
<line y1="478" x2="539" y2="478" stroke="#737370" stroke-width="2" stroke-dasharray="4 4"/>
<line y1="407" x2="539" y2="407" stroke="#737370" stroke-width="2" stroke-dasharray="4 4"/>
<line x1="1" y1="312" x2="540" y2="312" stroke="#737370" stroke-width="2" stroke-dasharray="4 4"/>
</svg>
